<svg xmlns="http://www.w3.org/2000/svg" width="343.058" height="252.303" viewBox="0 0 343.058 252.303">
  <g id="Top_Notch_Logo_Vertical" data-name="Top Notch Logo Vertical" transform="translate(-51.341 -173.886)">
    <g id="Group_12" data-name="Group 12" transform="translate(135.511 173.886)">
      <g id="Group_11" data-name="Group 11">
        <path id="Path_54" data-name="Path 54" d="M351.488,232.062h-57.9V173.886h-59.7v58.176h-57.9v59.994h57.9v58.176h59.7V292.056h57.9Z" transform="translate(-175.995 -173.886)" fill="#379ba6" fill-rule="evenodd"/>
      </g>
    </g>
    <g id="Group_13" data-name="Group 13" transform="translate(51.341 354.49)">
      <path id="Path_55" data-name="Path 55" d="M64.052,449.6H51.341v-6.678h32.8V449.6H71.433v34.794h-7.38Z" transform="translate(-51.341 -441.863)" fill="#fff"/>
      <path id="Path_56" data-name="Path 56" d="M125.988,441.359c12.945-.234,22.083,8.435,22.083,21.732,0,12.945-9.138,21.615-22.083,21.849-12.769,0-21.907-8.669-21.907-21.614C104.081,450.027,113.219,441.359,125.988,441.359Zm.058,36.9c8.611,0,14.293-6.561,14.293-15.406,0-8.259-5.682-14.819-14.293-14.819-8.552,0-14.233,6.561-14.233,14.819C111.813,471.7,117.495,478.262,126.046,478.262Z" transform="translate(-68.469 -441.354)" fill="#fff"/>
      <path id="Path_57" data-name="Path 57" d="M179.633,442.922h13.942c8.025,0,15.289,2.812,15.289,12.008,0,10.427-7.791,12.3-16.577,12.3h-5.272v17.162h-7.381ZM191.466,460.9c4.218,0,9.666-.234,9.666-5.858,0-5.1-4.863-5.8-8.846-5.8h-5.272V460.9Z" transform="translate(-93.006 -441.863)" fill="#fff"/>
      <path id="Path_58" data-name="Path 58" d="M262.4,442.922h9.782l20.092,30.812.117.117h-.117l.117-.117V442.922h7.381v41.472H290.4l-20.5-31.808h-.117v31.808H262.4Z" transform="translate(-119.884 -441.863)" fill="#fff"/>
      <path id="Path_59" data-name="Path 59" d="M348.692,441.359c12.946-.234,22.084,8.435,22.084,21.732,0,12.945-9.139,21.615-22.084,21.849-12.77,0-21.907-8.669-21.907-21.614C326.785,450.027,335.922,441.359,348.692,441.359Zm.059,36.9c8.611,0,14.293-6.561,14.293-15.406,0-8.259-5.682-14.819-14.293-14.819-8.553,0-14.234,6.561-14.234,14.819C334.516,471.7,340.2,478.262,348.75,478.262Z" transform="translate(-140.796 -441.354)" fill="#fff"/>
      <path id="Path_60" data-name="Path 60" d="M407.442,449.6H394.73v-6.678h32.8V449.6H414.822v34.794h-7.38Z" transform="translate(-162.862 -441.863)" fill="#fff"/>
      <path id="Path_61" data-name="Path 61" d="M476.8,452.139c-3.045-3.222-5.857-4.1-8.727-4.1-8.552,0-14.233,6.561-14.233,14.819,0,8.845,5.681,15.406,14.233,15.406,3.339,0,6.561-1.523,9.314-5.037l6.091,4.335c-3.749,5.154-9.372,7.38-15.464,7.38-12.77,0-21.908-8.669-21.908-21.614,0-13.3,9.138-21.966,21.908-21.966a18.022,18.022,0,0,1,14.526,6.56Z" transform="translate(-179.548 -441.356)" fill="#fff"/>
      <path id="Path_62" data-name="Path 62" d="M508.824,442.922h7.382v16.519h19.389V442.922h7.38v41.472h-7.38V466.118H516.206v18.277h-7.382Z" transform="translate(-199.916 -441.863)" fill="#fff"/>
    </g>
    <g id="Group_14" data-name="Group 14" transform="translate(58.881 402.021)">
      <path id="Path_63" data-name="Path 63" d="M69.556,516.315H62.507v-3.7H80.7v3.7H73.649v19.3H69.556Z" transform="translate(-62.507 -512.028)" fill="#379ba6"/>
      <path id="Path_64" data-name="Path 64" d="M93.583,512.611h4.093v9.161h10.752v-9.161h4.093v23h-4.093V525.476H97.676v10.135H93.583Z" transform="translate(-72.599 -512.028)" fill="#379ba6"/>
      <path id="Path_65" data-name="Path 65" d="M129.229,512.611h15.235v3.7H133.322v5.653H143.88v3.7H133.322v6.237H145.05v3.7H129.229Z" transform="translate(-84.176 -512.028)" fill="#379ba6"/>
      <path id="Path_66" data-name="Path 66" d="M172.86,512.611h4.093v9.161h10.752v-9.161H191.8v23h-4.093V525.476H176.953v10.135H172.86Z" transform="translate(-98.346 -512.028)" fill="#379ba6"/>
      <path id="Path_67" data-name="Path 67" d="M208.505,512.611h15.236v3.7H212.6v5.653h10.557v3.7H212.6v6.237h11.727v3.7H208.505Z" transform="translate(-109.922 -512.028)" fill="#379ba6"/>
      <path id="Path_68" data-name="Path 68" d="M244.1,512.611h3.541l9.908,23h-4.679l-2.143-5.263h-9.974l-2.078,5.263H234.1Zm5.2,14.229-3.541-9.355-3.605,9.355Z" transform="translate(-118.234 -512.028)" fill="#379ba6"/>
      <path id="Path_69" data-name="Path 69" d="M272.63,512.611h4.092v19.3H286.5v3.7H272.63Z" transform="translate(-130.748 -512.028)" fill="#379ba6"/>
      <path id="Path_70" data-name="Path 70" d="M296.756,516.315h-7.049v-3.7H307.9v3.7H300.85v19.3h-4.094Z" transform="translate(-136.294 -512.028)" fill="#379ba6"/>
      <path id="Path_71" data-name="Path 71" d="M320.783,512.611h4.094v9.161h10.752v-9.161h4.093v23h-4.093V525.476H324.877v10.135h-4.094Z" transform="translate(-146.386 -512.028)" fill="#379ba6"/>
      <path id="Path_72" data-name="Path 72" d="M385.862,517.724a6.268,6.268,0,0,0-4.84-2.274c-4.744,0-7.895,3.637-7.895,8.218,0,4.906,3.151,8.543,7.895,8.543a6.462,6.462,0,0,0,5.165-2.793l3.378,2.4a10.177,10.177,0,0,1-8.576,4.093c-7.081,0-12.149-4.807-12.149-11.987,0-7.374,5.068-12.181,12.149-12.181a10,10,0,0,1,8.057,3.637Z" transform="translate(-161.993 -511.747)" fill="#379ba6"/>
      <path id="Path_73" data-name="Path 73" d="M403.619,512.611h15.236v3.7H407.713v5.653H418.27v3.7H407.713v6.237H419.44v3.7H403.619Z" transform="translate(-173.289 -512.028)" fill="#379ba6"/>
      <path id="Path_74" data-name="Path 74" d="M433.013,512.611h5.425L449.581,529.7l.064.065h-.064l.064-.065V512.611h4.094v23h-5.2l-11.37-17.638h-.065v17.638h-4.093Z" transform="translate(-182.835 -512.028)" fill="#379ba6"/>
      <path id="Path_75" data-name="Path 75" d="M474.889,516.315H467.84v-3.7h18.191v3.7h-7.049v19.3h-4.093Z" transform="translate(-194.145 -512.028)" fill="#379ba6"/>
      <path id="Path_76" data-name="Path 76" d="M498.916,512.611h15.235v3.7H503.009v5.653h10.557v3.7H503.009v6.237h11.727v3.7H498.916Z" transform="translate(-204.238 -512.028)" fill="#379ba6"/>
      <path id="Path_77" data-name="Path 77" d="M528.308,512.611H536.3c4.417,0,8.576,1.43,8.576,6.595a5.893,5.893,0,0,1-5.328,6.237l6.108,10.168h-4.939l-5.328-9.746H532.4v9.746h-4.093Zm7.277,9.746c2.306,0,5-.2,5-3.184,0-2.729-2.534-3.053-4.645-3.053H532.4v6.237Z" transform="translate(-213.783 -512.028)" fill="#379ba6"/>
    </g>
    <g id="Group_15" data-name="Group 15" transform="translate(140.81 187.41)">
      <path id="Path_78" data-name="Path 78" d="M297.069,341.985l-18.661-21.665,18.657,63.945,18.652-63.933Z" transform="translate(-214.554 -234.967)" fill="#fff"/>
      <path id="Path_79" data-name="Path 79" d="M307.535,334.435a3.057,3.057,0,1,1-3.057-3.127A3.094,3.094,0,0,1,307.535,334.435Z" transform="translate(-222.028 -238.536)" fill="#fff"/>
      <path id="Path_80" data-name="Path 80" d="M251.859,339.195s-26.747,20.154-53.5-4.17c0,0-12.609-12.161-14.52-14.593,0,0,32.862-26.754,66.871,13.552,0,0-9.171,2.084-34.773-8.34C215.94,325.644,225.494,337.8,251.859,339.195Z" transform="translate(-183.842 -232.177)" fill="#fff"/>
      <path id="Path_81" data-name="Path 81" d="M243.8,298.089s-21.017-1.39-23.31-31.618c0,0,20.634,2.432,25.6,29.881,0,0-6.114-5.213-14.139-16.679C231.958,279.673,233.106,289.749,243.8,298.089Z" transform="translate(-195.746 -217.479)" fill="#fff"/>
      <path id="Path_82" data-name="Path 82" d="M280,299.686s-29.476-7.7-29.073-51.44c0,0,31.9,9.1,31.494,49.34,0,0-5.249-5.249-16.958-27.294C265.465,270.292,268.7,287.09,280,299.686Z" transform="translate(-205.628 -211.56)" fill="#fff"/>
      <path id="Path_83" data-name="Path 83" d="M327.315,339.195s26.748,20.154,53.5-4.17c0,0,12.609-12.161,14.52-14.593,0,0-32.862-26.754-66.871,13.552,0,0,9.17,2.084,34.773-8.34C363.235,325.644,353.682,337.8,327.315,339.195Z" transform="translate(-230.437 -232.177)" fill="#fff"/>
      <path id="Path_84" data-name="Path 84" d="M355.77,298.089s21.018-1.39,23.31-31.618c0,0-20.633,2.432-25.6,29.881,0,0,6.114-5.213,14.139-16.679C367.618,279.673,366.47,289.749,355.77,298.089Z" transform="translate(-238.934 -217.479)" fill="#fff"/>
      <path id="Path_85" data-name="Path 85" d="M316.736,299.686s29.476-7.7,29.074-51.44c0,0-31.9,9.1-31.495,49.34,0,0,5.248-5.249,16.958-27.294C331.273,270.292,328.04,287.09,316.736,299.686Z" transform="translate(-226.214 -211.56)" fill="#fff"/>
      <path id="Path_86" data-name="Path 86" d="M300.884,268.965s23.31-27.448,0-75.05c0,0-21.78,28.492-2.675,73.315,0,0,4.584-7.3.382-40.307C298.592,226.923,307.762,246.728,300.884,268.965Z" transform="translate(-218.435 -193.915)" fill="#fff"/>
    </g>
  </g>
</svg>
